0
SECTION
2
HEADER
9
$INSUNITS
70
4
9
$ACADVER
1
AC1014
9
$HANDSEED
5
FFFF
0
ENDSEC
0
SECTION
2
TABLES
0
TABLE
2
VPORT
5
8
100
AcDbSymbolTable
0
ENDTAB
0
TABLE
2
LTYPE
5
5
100
AcDbSymbolTable
0
LTYPE
5
14
100
AcDbSymbolTableRecord
100
AcDbLinetypeTableRecord
2
BYBLOCK
70
0
0
LTYPE
5
15
100
AcDbSymbolTableRecord
100
AcDbLinetypeTableRecord
2
BYLAYER
70
0
0
ENDTAB
0
TABLE
2
LAYER
5
2
100
AcDbSymbolTable
70
2
0
LAYER
5
50
100
AcDbSymbolTableRecord
100
AcDbLayerTableRecord
2
0
70
0
6
CONTINUOUS
0
ENDTAB
0
TABLE
2
STYLE
5
3
100
AcDbSymbolTable
70
1
0
STYLE
5
11
100
AcDbSymbolTableRecord
100
AcDbTextStyleTableRecord
2
STANDARD
70
0
0
ENDTAB
0
TABLE
2
VIEW
5
6
100
AcDbSymbolTable
70
0
0
ENDTAB
0
TABLE
2
UCS
5
7
100
AcDbSymbolTable
70
0
0
ENDTAB
0
TABLE
2
APPID
5
9
100
AcDbSymbolTable
70
2
0
APPID
5
12
100
AcDbSymbolTableRecord
100
AcDbRegAppTableRecord
2
ACAD
70
0
0
ENDTAB
0
TABLE
2
DIMSTYLE
5
A
100
AcDbSymbolTable
70
1
0
ENDTAB
0
TABLE
2
BLOCK_RECORD
5
1
100
AcDbSymbolTable
70
1
0
BLOCK_RECORD
5
1F
100
AcDbSymbolTableRecord
100
AcDbBlockTableRecord
2
*MODEL_SPACE
0
BLOCK_RECORD
5
1B
100
AcDbSymbolTableRecord
100
AcDbBlockTableRecord
2
*PAPER_SPACE
0
ENDTAB
0
ENDSEC
0
SECTION
2
BLOCKS
0
BLOCK
5
20
100
AcDbEntity
100
AcDbBlockBegin
2
*MODEL_SPACE
0
ENDBLK
5
21
100
AcDbEntity
100
AcDbBlockEnd
0
BLOCK
5
1C
100
AcDbEntity
100
AcDbBlockBegin
2
*PAPER_SPACE
0
ENDBLK
5
1D
100
AcDbEntity
100
AcDbBlockEnd
0
ENDSEC
0
SECTION
2
ENTITIES
0
CIRCLE
5
100
100
AcDbEntity
8
0
100
AcDbCircle
10
80
20
80
30
0
40
70
210
0
220
0
230
1
0
CIRCLE
5
101
100
AcDbEntity
8
0
100
AcDbCircle
10
80
20
80
30
0
40
5
210
0
220
0
230
1
0
CIRCLE
5
102
100
AcDbEntity
8
0
100
AcDbCircle
10
80.000001192092896
20
145.00000216066837
30
0
40
3.5000000521540642
210
0
220
0
230
1
0
CIRCLE
5
103
100
AcDbEntity
8
0
100
AcDbCircle
10
15.000000223517418
20
80.000001192092896
30
0
40
3.5000000521540642
210
0
220
0
230
1
0
CIRCLE
5
104
100
AcDbEntity
8
0
100
AcDbCircle
10
145.00000216066837
20
80.000001192092896
30
0
40
3.5000000521540642
210
0
220
0
230
1
0
CIRCLE
5
105
100
AcDbEntity
8
0
100
AcDbCircle
10
80.000001192092896
20
15.000000223517418
30
0
40
3.5000000521540642
210
0
220
0
230
1
0
CIRCLE
5
106
100
AcDbEntity
8
0
100
AcDbCircle
10
34.000000506639481
20
126.00000187754631
30
0
40
3.5
210
0
220
0
230
1
0
CIRCLE
5
107
100
AcDbEntity
8
0
100
AcDbCircle
10
125.99999718368053
20
125.99999718368053
30
0
40
3.4999999217689037
210
0
220
0
230
1
0
CIRCLE
5
108
100
AcDbEntity
8
0
100
AcDbCircle
10
126.00000187754631
20
34.000000506639481
30
0
40
3.5000011883707529
210
0
220
0
230
1
0
CIRCLE
5
109
100
AcDbEntity
8
0
100
AcDbCircle
10
34.000000506639481
20
34.000000506639481
30
0
40
3.5000011883678344
210
0
220
0
230
1
0
LWPOLYLINE
5
110
100
AcDbEntity
8
0
100
AcDbPolyline
90
4
70
1
43
0.0
10
44.841689492383466
20
51.912757304248927
10
34.185629780847869
20
41.256697592713323
42
-0.15587893274961248
10
20.208696284493023
20
74.999999999999986
10
35.278640450004175
20
75
42
0.14161447997448376
0
LWPOLYLINE
5
111
100
AcDbEntity
8
0
100
AcDbPolyline
90
4
70
1
43
0.0
10
51.912757304248927
20
44.841689492383466
10
41.256697592713323
20
34.185629780847876
42
0.15587893274961256
10
75
20
20.20869628449303
10
74.999999999999986
20
35.278640450004204
42
-0.1416144799744837
0
LWPOLYLINE
5
112
100
AcDbEntity
8
0
100
AcDbPolyline
90
3
70
1
43
0.0
10
62.619033242580841
20
55.547965430715394
42
0.11310412937304455
10
75
20
50.41960108450192
10
75.000001207201265
20
67.928933395335804
0
LWPOLYLINE
5
113
100
AcDbEntity
8
0
100
AcDbPolyline
90
4
70
1
43
0.0
10
85
20
20.208696284493037
10
85
20
35.27864045000419
42
0.14161448958780723
10
108.08724402112401
20
44.841690551196336
10
118.74330369906737
20
34.185630873252975
42
-0.15587893996988367
0
LWPOLYLINE
5
114
100
AcDbEntity
8
0
100
AcDbPolyline
90
3
70
1
43
0.0
10
85
20
50.419601084501934
42
0.11310414380355099
10
97.380968151012496
20
55.547966421307848
10
85
20
67.92893457232033
0
LWPOLYLINE
5
115
100
AcDbEntity
8
0
100
AcDbPolyline
90
4
70
1
43
0.0
10
115.15831156642938
20
51.912758629621869
10
125.81437131155718
20
41.256698884494071
42
0.15587892552934121
10
139.79130371550698
20
74.999999999999986
10
124.72135954999584
20
75
42
-0.14161447036116037
0
LWPOLYLINE
5
116
100
AcDbEntity
8
0
100
AcDbPolyline
90
3
70
1
43
0.0
10
50.419601084501913
20
75.000000000000014
42
0.11310412937304468
10
55.547965430715387
20
62.619033242580841
10
67.928932188134553
20
75.000000000000014
0
LWPOLYLINE
5
117
100
AcDbEntity
8
0
100
AcDbPolyline
90
4
70
1
43
0.0
10
124.72135954999581
20
85
10
139.79130371550698
20
85
42
0.15587893274961254
10
125.81437021915214
20
118.74330240728668
10
115.15831050761655
20
108.08724269575109
42
-0.14161447997448381
0
LWPOLYLINE
5
118
100
AcDbEntity
8
0
100
AcDbPolyline
90
3
70
1
43
0.0
10
104.452035559877
20
62.619034636174248
42
0.11310411494253805
10
109.58039891549808
20
75
10
92.071070196051252
20
75
0
LWPOLYLINE
5
119
100
AcDbEntity
8
0
100
AcDbPolyline
90
3
70
1
43
0.0
10
92.071067811865461
20
85
10
109.58039891549808
20
85
42
0.1131041293730448
10
104.45203456928461
20
97.380966757419174
0
LWPOLYLINE
5
120
100
AcDbEntity
8
0
100
AcDbPolyline
90
4
70
1
43
0.0
10
118.74330240728669
20
125.81437021915214
10
108.08724269575109
20
115.15831050761653
42
0.14161447997448384
10
85
20
124.72135954999581
10
85
20
139.79130371550701
42
-0.15587893274961259
0
LWPOLYLINE
5
121
100
AcDbEntity
8
0
100
AcDbPolyline
90
3
70
1
43
0.0
10
85
20
92.071067811865461
10
85
20
109.58039891549808
42
-0.11310412937304473
10
97.380966757419159
20
104.45203456928461
0
LWPOLYLINE
5
122
100
AcDbEntity
8
0
100
AcDbPolyline
90
4
70
1
43
0.0
10
75
20
124.72135954999584
42
0.14161447366114049
10
51.912758174659082
20
115.15831120296909
10
41.256698698186895
20
125.81437115400506
42
-0.15587892657068531
10
75.000000000000014
20
139.79130371550701
0
LWPOLYLINE
5
123
100
AcDbEntity
8
0
100
AcDbPolyline
90
4
70
1
43
0.0
10
44.841690551196329
20
108.08724402112401
42
0.14161448958780712
10
35.278640450004175
20
85
10
20.208696284492994
20
84.999999999999986
42
-0.15587893996988367
10
34.185630873252947
20
118.74330369906737
0
LWPOLYLINE
5
124
100
AcDbEntity
8
0
100
AcDbPolyline
90
3
70
1
43
0.0
10
75
20
109.58039891549805
42
0.11310412278199709
10
62.619033879096278
20
104.45203502173175
10
75
20
92.071068349446136
0
LWPOLYLINE
5
125
100
AcDbEntity
8
0
100
AcDbPolyline
90
3
70
1
43
0.0
10
55.547966421307834
20
97.380968151012468
42
0.1131041438035508
10
50.41960108450192
20
85
10
67.928934572320316
20
85
0
LINE
5
126
100
AcDbEntity
8
0
100
AcDbLine
10
76.462414315874682
20
76.466519063660925
30
0
11
76.466520256447382
21
76.462413124472647
31
0
0
LINE
5
127
100
AcDbEntity
8
0
100
AcDbLine
10
75.000002039143652
20
79.995484312647392
30
0
11
75.000002039766372
21
80.004516376816412
31
0
0
LINE
5
128
100
AcDbEntity
8
0
100
AcDbLine
10
10
20
85
30
0
11
10.178799781155297
21
85
31
0
0
LINE
5
129
100
AcDbEntity
8
0
100
AcDbLine
10
10
20
75
30
0
11
10.178799781155297
21
75
31
0
0
CIRCLE
5
130
100
AcDbEntity
8
0
100
AcDbCircle
10
160
20
25
30
0
40
20
210
0
220
0
230
1
0
CIRCLE
5
131
100
AcDbEntity
8
0
100
AcDbCircle
10
205.03493100266195
20
24.933701738852928
30
0
40
20.045920185693884
210
0
220
0
230
1
0
CIRCLE
5
132
100
AcDbEntity
8
0
100
AcDbCircle
10
250
20
25
30
0
40
20
210
0
220
0
230
1
0
CIRCLE
5
133
100
AcDbEntity
8
0
100
AcDbCircle
10
175
20
65
30
0
40
19.894330242079576
210
0
220
0
230
1
0
CIRCLE
5
134
100
AcDbEntity
8
0
100
AcDbCircle
10
220
20
65
30
0
40
19.136993136920282
210
0
220
0
230
1
0
CIRCLE
5
135
100
AcDbEntity
8
0
100
AcDbCircle
10
264.99787289444714
20
64.998575948261831
30
0
40
19.9139073033712
210
0
220
0
230
1
0
CIRCLE
5
136
100
AcDbEntity
8
0
100
AcDbCircle
10
170
20
110
30
0
40
20
210
0
220
0
230
1
0
CIRCLE
5
137
100
AcDbEntity
8
0
100
AcDbCircle
10
215
20
110
30
0
40
20
210
0
220
0
230
1
0
CIRCLE
5
138
100
AcDbEntity
8
0
100
AcDbCircle
10
275
20
10
30
0
40
6.9999999552977155
210
0
220
0
230
1
0
CIRCLE
5
139
100
AcDbEntity
8
0
100
AcDbCircle
10
291.93058007686801
20
10
30
0
40
7.0000000000000036
210
0
220
0
230
1
0
CIRCLE
5
140
100
AcDbEntity
8
0
100
AcDbCircle
10
290.00000432133675
20
45.000000670552254
30
0
40
9.0000001341104507
210
0
220
0
230
1
0
CIRCLE
5
141
100
AcDbEntity
8
0
100
AcDbCircle
10
285.00000424683094
20
26.000000387430191
30
0
40
9.0000001341104507
210
0
220
0
230
1
0
CIRCLE
5
142
100
AcDbEntity
8
0
100
AcDbCircle
10
160.00000238418579
20
40.000000596046448
30
0
40
3.5000000521540642
210
0
220
0
230
1
0
CIRCLE
5
143
100
AcDbEntity
8
0
100
AcDbCircle
10
205.00000305473804
20
40.000000596046448
30
0
40
3.5000000521540642
210
0
220
0
230
1
0
CIRCLE
5
144
100
AcDbEntity
8
0
100
AcDbCircle
10
250.0000037252903
20
40.000000596046448
30
0
40
3.5000000521540642
210
0
220
0
230
1
0
CIRCLE
5
145
100
AcDbEntity
8
0
100
AcDbCircle
10
220
20
80
30
0
40
3.4999967738988049
210
0
220
0
230
1
0
CIRCLE
5
146
100
AcDbEntity
8
0
100
AcDbCircle
10
265
20
80
30
0
40
3.5000000000000142
210
0
220
0
230
1
0
CIRCLE
5
147
100
AcDbEntity
8
0
100
AcDbCircle
10
175.00000260770321
20
80.000001192092896
30
0
40
3.5000000521540642
210
0
220
0
230
1
0
CIRCLE
5
148
100
AcDbEntity
8
0
100
AcDbCircle
10
170.0000025331974
20
125.00000186264515
30
0
40
3.5000000521540642
210
0
220
0
230
1
0
CIRCLE
5
149
100
AcDbEntity
8
0
100
AcDbCircle
10
215
20
125
30
0
40
3.4999968484049031
210
0
220
0
230
1
0
LINE
5
150
100
AcDbEntity
8
0
100
AcDbLine
10
143.0145786611385
20
35.55914115547985
30
0
11
153.00000227987766
21
37.000000551342964
31
0
0
LINE
5
151
100
AcDbEntity
8
0
100
AcDbLine
10
153.00000227987766
20
37.000000551342964
30
0
11
154.50714551375728
21
14.777630393191629
31
0
0
LINE
5
152
100
AcDbEntity
8
0
100
AcDbLine
10
154.50714551375728
20
14.777630393191629
30
0
11
153.75357389681747
21
13.128652838211533
31
0
0
LINE
5
153
100
AcDbEntity
8
0
100
AcDbLine
10
153.75357389681747
20
13.128652838211533
30
0
11
144.92658931094749
21
11.854951875357877
31
0
0
LINE
5
154
100
AcDbEntity
8
0
100
AcDbLine
10
143.32766003713769
20
13.953141615701581
30
0
11
140.26449034057697
21
28.2418603428927
31
0
0
LINE
5
155
100
AcDbEntity
8
0
100
AcDbLine
10
153.75357389681747
20
13.128652838211533
30
0
11
154.13035970528739
21
7.066235356667061
31
0
0
LINE
5
156
100
AcDbEntity
8
0
100
AcDbLine
10
154.13035970528739
20
7.066235356667061
30
0
11
151.84781223161997
21
6.736872267076615
31
0
0
LINE
5
157
100
AcDbEntity
8
0
100
AcDbLine
10
153.13956421618872
20
34.942202102612157
30
0
11
141.80672803065568
21
33.306916097413648
31
0
0
LWPOLYLINE
5
158
100
AcDbEntity
8
0
100
AcDbPolyline
90
5
70
1
43
0.0
10
144.00000214576721
20
27.000000402331352
10
150.09857362538673
20
27.880001527297363
10
150.50000224262476
20
21.000000312924385
10
145.00000216066837
20
20.000000298023224
10
143.18567200913517
20
26.882495599981372
0
LINE
5
159
100
AcDbEntity
8
0
100
AcDbLine
10
209.00000311434269
20
27.000000402331352
30
0
11
196.4481335741817
21
12.439490398817785
31
0
0
LINE
5
160
100
AcDbEntity
8
0
100
AcDbLine
10
196.4481335741817
20
12.439490398817785
30
0
11
212.14418522270114
21
6.1907718578000974
31
0
0
LINE
5
161
100
AcDbEntity
8
0
100
AcDbLine
10
209.00000311434269
20
27.000000402331352
30
0
11
224.90689757719875
21
22.298581143566985
31
0
0
LINE
5
162
100
AcDbEntity
8
0
100
AcDbLine
10
209.00000311434269
20
27.000000402331352
30
0
11
211.96875213656668
21
43.742238113973258
31
0
0
LINE
5
163
100
AcDbEntity
8
0
100
AcDbLine
10
210.59713151572467
20
27.971514125696064
30
0
11
213.29714572665563
21
43.197729880142745
31
0
0
LINE
5
164
100
AcDbEntity
8
0
100
AcDbLine
10
210.59713151572467
20
27.971514125696064
30
0
11
225.04297202829588
21
23.701950786851
31
0
0
LINE
5
165
100
AcDbEntity
8
0
100
AcDbLine
10
209.85310046714176
20
24.736182090992394
30
0
11
199.46333207659362
21
12.747987794206065
31
0
0
LINE
5
166
100
AcDbEntity
8
0
100
AcDbLine
10
199.46333207659362
20
12.747987794206065
30
0
11
213.99529216294596
21
7.001862904854824
31
0
0
LINE
5
167
100
AcDbEntity
8
0
100
AcDbLine
10
209.85310046714176
20
24.736182090992394
30
0
11
224.56755590523142
21
20.426431999117852
31
0
0
LINE
5
168
100
AcDbEntity
8
0
100
AcDbLine
10
218.26607384599143
20
22.272087313921809
30
0
11
209.36200229851841
21
8.8339256170672655
31
0
0
LINE
5
169
100
AcDbEntity
8
0
100
AcDbLine
10
205.31545650078124
20
19.500439052884069
30
0
11
221.54615291949952
21
13.566271646516695
31
0
0
LINE
5
170
100
AcDbEntity
8
0
100
AcDbLine
10
211.94713862119016
20
35.584622002919403
30
0
11
218.79863063688563
21
39.507633551170393
31
0
0
LINE
5
171
100
AcDbEntity
8
0
100
AcDbLine
10
210.59713151572467
20
27.971514125696064
30
0
11
222.78211993630836
21
34.254442108837857
31
0
0
LINE
5
172
100
AcDbEntity
8
0
100
AcDbLine
10
212.20627741630153
20
37.04598586861286
30
0
11
217.90043264003168
21
40.306332733905293
31
0
0
LINE
5
173
100
AcDbEntity
8
0
100
AcDbLine
10
211.25846662470258
20
31.700987479770095
30
0
11
221.17924954252945
21
36.816457941624165
31
0
0
LINE
5
174
100
AcDbEntity
8
0
100
AcDbLine
10
196.4481335741817
20
12.439490398817785
30
0
11
196.44813357418204
21
9.3151311283089626
31
0
0
LINE
5
175
100
AcDbEntity
8
0
100
AcDbLine
10
196.44813357418204
20
9.3151311283089626
30
0
11
207.24915971059323
21
5.0104462990363219
31
0
0
ELLIPSE
5
176
100
AcDbEntity
8
0
100
AcDbEllipse
10
241.57787022283816
20
24.851242969204389
30
0
11
2.3880109956044682
21
-13.041691833002764
31
0.0
40
0.65449395791304243
41
0
42
6.2831853071795862
0
LINE
5
177
100
AcDbEntity
8
0
100
AcDbLine
10
243.03877553176164
20
10.634681153787708
30
0
11
243.03877553176164
21
6.2505639044050287
31
0
0
LINE
5
178
100
AcDbEntity
8
0
100
AcDbLine
10
245.22142002391405
20
11.029371843539007
30
0
11
247.28757687434037
21
5.184784614156051
31
0
0
LINE
5
179
100
AcDbEntity
8
0
100
AcDbLine
10
245.51298216167598
20
35.590589383542948
30
0
11
235.68493591921282
21
16.490584769215943
31
0
0
LINE
5
180
100
AcDbEntity
8
0
100
AcDbLine
10
235.0704346026495
20
17.512814385933318
30
0
11
244.72394148000117
21
36.273616009475937
31
0
0
LINE
5
181
100
AcDbEntity
8
0
100
AcDbLine
10
247.38136963203632
20
33.347180676215686
30
0
11
237.53646722612459
21
14.214417485900574
31
0
0
LINE
5
182
100
AcDbEntity
8
0
100
AcDbLine
10
240.59895904044438
20
12.171957363683976
30
0
11
249.38106227470971
21
29.239257227743689
31
0
0
LINE
5
183
100
AcDbEntity
8
0
100
AcDbLine
10
156.54336919670135
20
72.425439729177612
30
0
11
171.12350407279706
21
75.868771725574163
31
0
0
LINE
5
184
100
AcDbEntity
8
0
100
AcDbLine
10
171.12350407279706
20
75.868771725574163
30
0
11
172.85107080554039
21
62.845576355662978
31
0
0
LINE
5
185
100
AcDbEntity
8
0
100
AcDbLine
10
172.85107080554039
20
62.845576355662978
30
0
11
156.0696280375073
21
58.882370300305872
31
0
0
LINE
5
186
100
AcDbEntity
8
0
100
AcDbLine
10
172.85107080554039
20
62.845576355662978
30
0
11
183.615140448018
21
56.865537665397632
31
0
0
LINE
5
187
100
AcDbEntity
8
0
100
AcDbLine
10
183.615140448018
20
56.865537665397632
30
0
11
162.65431154127356
21
49.399732301624312
31
0
0
LINE
5
188
100
AcDbEntity
8
0
100
AcDbLine
10
183.615140448018
20
56.865537665397632
30
0
11
183.615140448018
21
54.000000804662704
31
0
0
LINE
5
189
100
AcDbEntity
8
0
100
AcDbLine
10
183.615140448018
20
54.000000804662704
30
0
11
166.01963208715068
21
47.247891169475423
31
0
0
LINE
5
190
100
AcDbEntity
8
0
100
AcDbLine
10
156.67111162640896
20
57.264612047908585
30
0
11
171.98728743916874
21
61.626147710304664
31
0
0
LINE
5
191
100
AcDbEntity
8
0
100
AcDbLine
10
171.98728743916874
20
61.626147710304664
30
0
11
179.79967215260126
21
57.235456067725934
31
0
0
LINE
5
192
100
AcDbEntity
8
0
100
AcDbLine
10
179.79967215260126
20
57.235456067725934
30
0
11
161.23344808318194
21
50.638021581186131
31
0
0
LINE
5
193
100
AcDbEntity
8
0
100
AcDbLine
10
173.36510654812017
20
60.851790190985781
30
0
11
160.16403700418294
21
51.745620430677668
31
0
0
LINE
5
194
100
AcDbEntity
8
0
100
AcDbLine
10
159.09949631215508
20
57.95613495404254
30
0
11
173.36510654812017
21
54.94895856203069
31
0
0
LINE
5
195
100
AcDbEntity
8
0
100
AcDbLine
10
156.7109095170145
20
71.154108534556457
30
0
11
170.04423158900437
21
74.302985749952782
31
0
0
LINE
5
196
100
AcDbEntity
8
0
100
AcDbLine
10
170.04423158900437
20
74.302985749952782
30
0
11
171.43312582336341
21
63.832859983245918
31
0
0
LINE
5
197
100
AcDbEntity
8
0
100
AcDbLine
10
171.43312582336341
20
63.832859983245918
30
0
11
155.70756253398318
21
60.143434093852633
31
0
0
LINE
5
198
100
AcDbEntity
8
0
100
AcDbLine
10
156.7109095170145
20
71.154108534556457
30
0
11
156.02989118163816
21
70.993275164751452
31
0
0
LINE
5
199
100
AcDbEntity
8
0
100
AcDbLine
10
163.37757055300943
20
72.728547142254627
30
0
11
155.11475113805099
21
65.601043658370585
31
0
0
LINE
5
200
100
AcDbEntity
8
0
100
AcDbLine
10
165.29283649622494
20
73.180867821036188
30
0
11
155.11468348993327
21
64.401198634448576
31
0
0
LINE
5
201
100
AcDbEntity
8
0
100
AcDbLine
10
169.14102265473502
20
74.089678517253589
30
0
11
155.30961031383421
21
62.158709837442139
31
0
0
LINE
5
202
100
AcDbEntity
8
0
100
AcDbLine
10
158.72681240397242
20
60.851790190985781
30
0
11
170.48331850886512
21
70.992945892540973
31
0
0
LINE
5
203
100
AcDbEntity
8
0
100
AcDbLine
10
213.02360362870186
20
82.820056116440043
30
0
11
212.00000315904617
21
71.500001065433025
31
0
0
LINE
5
204
100
AcDbEntity
8
0
100
AcDbLine
10
206.27066945731326
20
78.331541140175148
30
0
11
208.00000309944153
21
72.000001072883606
31
0
0
LINE
5
205
100
AcDbEntity
8
0
100
AcDbLine
10
208.00000309944153
20
72.000001072883606
30
0
11
208.38818348794223
21
70.578771748908693
31
0
0
LINE
5
206
100
AcDbEntity
8
0
100
AcDbLine
10
212.00000315904617
20
71.500001065433025
30
0
11
208.38818348794223
21
70.578771748908693
31
0
0
LINE
5
207
100
AcDbEntity
8
0
100
AcDbLine
10
210.32546895481164
20
81.511449221016946
30
0
11
211.08157876657586
21
71.265748098120255
31
0
0
LINE
5
208
100
AcDbEntity
8
0
100
AcDbLine
10
207.99529549935656
20
79.903408206674229
30
0
11
209.68973547875865
21
70.910745092016995
31
0
0
LINE
5
209
100
AcDbEntity
8
0
100
AcDbLine
10
209.87642855620348
20
69.851070965888354
30
0
11
212.26517759199345
21
70.460344363227264
31
0
0
LINE
5
210
100
AcDbEntity
8
0
100
AcDbLine
10
212.00000315904617
20
71.500001065433025
30
0
11
212.26517759199345
21
70.460344363227264
31
0
0
LINE
5
211
100
AcDbEntity
8
0
100
AcDbLine
10
221.00000329315662
20
68.000001013278961
30
0
11
222.00000330805779
21
46.000000685453415
31
0
0
LINE
5
212
100
AcDbEntity
8
0
100
AcDbLine
10
222.00000330805779
20
46.000000685453415
30
0
11
222.00145984406458
21
45.967956893304098
31
0
0
LINE
5
213
100
AcDbEntity
8
0
100
AcDbLine
10
200.88054662562661
20
64.180848617350676
30
0
11
204.75133095982676
21
53.437016006852005
31
0
0
LINE
5
214
100
AcDbEntity
8
0
100
AcDbLine
10
207.16358390006042
20
69.018516590684357
30
0
11
206.39730118982951
21
68.742440518219155
31
0
0
LINE
5
215
100
AcDbEntity
8
0
100
AcDbLine
10
212.26517759199345
20
70.460344363227264
30
0
11
218.00000324845314
21
70.460344363227264
31
0
0
ARC
5
216
100
AcDbEntity
8
0
100
AcDbCircle
10
218.00000324845314
20
62.913519605903872
30
0
40
7.5468247573233924
210
0
220
-0
230
1
100
AcDbArc
50
78.952635513628053
51
90
0
LINE
5
217
100
AcDbEntity
8
0
100
AcDbLine
10
221.00000329315662
20
68.000001013278961
30
0
11
220.9554660680993
21
68.979819964540383
31
0
0
ARC
5
218
100
AcDbEntity
8
0
100
AcDbCircle
10
219.01498297027356
20
68.112189500606505
30
0
40
2.2500000000000595
210
0
220
-0
230
1
100
AcDbArc
50
41.130648244409521
51
78.952635513627143
0
ARC
5
219
100
AcDbEntity
8
0
100
AcDbCircle
10
219.95649752788879
20
68.934412303621698
30
0
40
1.0000000000002072
210
0
220
-0
230
1
100
AcDbArc
50
2.6025622025010637
51
41.13064824440238
0
ARC
5
220
100
AcDbEntity
8
0
100
AcDbCircle
10
213.85425343385822
20
48.044762792682903
30
0
40
21.999999999997367
210
0
220
0
230
1
100
AcDbArc
50
109.81305993436463
51
123.92845892988541
0
LINE
5
221
100
AcDbEntity
8
0
100
AcDbLine
10
201.11781299064694
20
65.812624830553787
30
0
11
200.86686634081678
21
65.384321092791254
31
0
0
ARC
5
222
100
AcDbEntity
8
0
100
AcDbCircle
10
202.41202860045297
20
65.054333359329974
30
0
40
1.4999999999987892
210
0
220
-0
230
1
100
AcDbArc
50
123.92845892988127
51
149.63361495603857
0
LWPOLYLINE
5
223
100
AcDbEntity
8
0
100
AcDbPolyline
90
4
70
1
43
0.0
10
207.00000308454037
20
61.000000908970833
10
218.00000324845314
20
62.913519605903872
10
218.00000324845314
20
52.000000774860382
10
210.11267663290479
20
50.627951072790118
0
LINE
5
224
100
AcDbEntity
8
0
100
AcDbLine
10
202.41202860045297
20
65.054333359329974
30
0
11
219.01498297027356
21
68.934412303621698
31
0
0
LINE
5
225
100
AcDbEntity
8
0
100
AcDbLine
10
276.92541998618333
20
74.802707246592931
30
0
11
270.56974245338671
21
61.777260282788475
31
0
0
ELLIPSE
5
226
100
AcDbEntity
8
0
100
AcDbEllipse
10
279.25968166929783
20
71.6865103941104
30
0
11
2.0216443726531157
21
-3.5400604390159658
31
0.0
40
0.37033565889713727
41
0
42
6.2831853071795862
0
LINE
5
227
100
AcDbEntity
8
0
100
AcDbLine
10
281.4880742039395
20
68.344709936044509
30
0
11
276.74170962442912
21
58.688380546715699
31
0
0
LINE
5
228
100
AcDbEntity
8
0
100
AcDbLine
10
269.99281721749662
20
62.19199868733412
30
0
11
261.77362088312265
21
45.347420688208267
31
0
0
LINE
5
229
100
AcDbEntity
8
0
100
AcDbLine
10
277.29878532636229
20
58.592425085055012
30
0
11
271.13589940175279
21
46.05422759095817
31
0
0
ELLIPSE
5
230
100
AcDbEntity
8
0
100
AcDbEllipse
10
273.64580127192943
20
60.39221188619458
30
0
11
3.6529840544328462
21
-1.7997868011395532
31
0.0
40
0.37686447375797871
41
2.5477952690193466
42
6.8055090607202837
0
ELLIPSE
5
231
100
AcDbEntity
8
0
100
AcDbEllipse
10
270.56305519445812
20
54.025740601648444
30
0
11
3.7174302974430526
21
-1.831538786865319
31
0.0
40
0.32051839162467022
41
3.2991238221926014
42
6.0487717297788288
0
ELLIPSE
5
232
100
AcDbEntity
8
0
100
AcDbEllipse
10
269.57020088763426
20
51.8834773666198
30
0
11
3.7774645019698925
21
-1.8611170076607815
31
0.0
40
0.35600727216755845
41
3.3259467406655663
42
5.9482112506654632
0
ELLIPSE
5
233
100
AcDbEntity
8
0
100
AcDbEllipse
10
274.04780054143163
20
60.947624560669581
30
0
11
3.6529840544328462
21
-1.7997868011395532
31
0.0
40
0.37686447375797866
41
2.5477952690193466
42
2.6015079456669064
0
ELLIPSE
5
234
100
AcDbEntity
8
0
100
AcDbEllipse
10
274.04780054143163
20
60.947624560669581
30
0
11
3.6529840544328458
21
-1.799786801139553
31
0.0
40
0.37686447375797866
41
3.6845614581260904
42
5.7070993557041012
0
ARC
5
235
100
AcDbEntity
8
0
100
AcDbCircle
10
180
20
105
30
0
40
13.041846114278533
210
0
220
-0
230
1
100
AcDbArc
50
42.350459112698346
51
264.51943853314572
0
LINE
5
236
100
AcDbEntity
8
0
100
AcDbLine
10
170
20
113.37196213969713
30
0
11
188.79735169678227
21
103.16921899139805
31
0
0
LINE
5
237
100
AcDbEntity
8
0
100
AcDbLine
10
167.37490643911605
20
108.27059056554759
30
0
11
186.08554396908542
21
98.114913747952016
31
0
0
LINE
5
238
100
AcDbEntity
8
0
100
AcDbLine
10
164.02842053737587
20
98.022084604384503
30
0
11
164.04936508571279
21
97.946090170190629
31
0
0
ARC
5
239
100
AcDbEntity
8
0
100
AcDbCircle
10
162.99079307075047
20
100.92099616296341
30
0
40
3.0790191594009295
210
0
220
-0
230
1
100
AcDbArc
50
89.828627847762917
51
297.65075522555651
0
ARC
5
240
100
AcDbEntity
8
0
100
AcDbCircle
10
165.39119146250317
20
96.339347361263918
30
0
40
2.093351494491114
210
0
220
0
230
1
100
AcDbArc
50
117.65075522555664
51
320.22239223602674
0
ARC
5
241
100
AcDbEntity
8
0
100
AcDbCircle
10
180.8162046227647
20
121.29708942674921
30
0
40
1.5283788989371674
210
-0
220
0
230
1
100
AcDbArc
50
-42.138206109287985
51
185.38049333606116
0
ARC
5
242
100
AcDbEntity
8
0
100
AcDbCircle
10
177.75371975633237
20
121.55508696489144
30
0
40
1.5922437058664358
210
-0
220
0
230
1
100
AcDbArc
50
-14.598393808983436
51
204.59839380898435
0
LINE
5
243
100
AcDbEntity
8
0
100
AcDbLine
10
218.08928896406934
20
110.98214451090567
30
0
11
218.81375048322832
21
118.95122122165459
31
0
0
LINE
5
244
100
AcDbEntity
8
0
100
AcDbLine
10
222.42802092918268
20
120.94522715153292
30
0
11
229.84470096740171
21
118.66317175515783
31
0
0
LINE
5
245
100
AcDbEntity
8
0
100
AcDbLine
10
231.08415236696717
20
115.93933680560704
30
0
11
228.00000339746475
21
109.00000162422657
31
0
0
LWPOLYLINE
5
246
100
AcDbEntity
8
0
100
AcDbPolyline
90
6
70
1
43
0.0
10
228.00000339746475
20
109.00000162422657
10
218.00000324845314
20
111.00000165402889
10
217.00000323355198
20
110.00000163912773
10
215.77290925952153
20
96.501967924792794
10
224.41775943259267
20
95.059505115087418
10
228.50000340491533
20
108.00000160932541
0
LINE
5
247
100
AcDbEntity
8
0
100
AcDbLine
10
215.77290925952153
20
96.501967924792794
30
0
11
214.28201628353764
21
90.012891670306701
31
0
0
LINE
5
248
100
AcDbEntity
8
0
100
AcDbLine
10
224.41775943259267
20
95.059505115087418
30
0
11
223.87644236613627
21
91.815327931345934
31
0
0
ARC
5
249
100
AcDbEntity
8
0
100
AcDbCircle
10
221.4722419204607
20
117.83894537318665
30
0
40
3.2499999999999529
210
0
220
-0
230
1
100
AcDbArc
50
72.897271030946854
51
114.69146426800033
0
ARC
5
250
100
AcDbEntity
8
0
100
AcDbCircle
10
221.05451019778073
20
118.74751579305871
30
0
40
2.250000000000115
210
0
220
-0
230
1
100
AcDbArc
50
114.69146426800445
51
174.80557109225995
0
ARC
5
251
100
AcDbEntity
8
0
100
AcDbCircle
10
229.25652926972671
20
116.75161373771395
30
0
40
1.9999999999999702
210
-0
220
0
230
1
100
AcDbArc
50
-23.962488974579205
51
72.897271030948886
0
LINE
5
252
100
AcDbEntity
8
0
100
AcDbLine
10
218.00000324845314
20
110.00000163912773
30
0
11
226.05144227310757
21
108.38971383419684
31
0
0
CIRCLE
5
253
100
AcDbEntity
8
0
100
AcDbCircle
10
156.00000232458115
20
116.0000017285347
30
0
40
1.5000000223517418
210
0
220
0
230
1
0
CIRCLE
5
254
100
AcDbEntity
8
0
100
AcDbCircle
10
161.50000240653753
20
112.50000167638063
30
0
40
1.5000000223517418
210
0
220
0
230
1
0
CIRCLE
5
255
100
AcDbEntity
8
0
100
AcDbCircle
10
202.00000301003456
20
108.00000160932541
30
0
40
1.5000000223517418
210
0
220
0
230
1
0
CIRCLE
5
256
100
AcDbEntity
8
0
100
AcDbCircle
10
209.00000311434269
20
115.00000171363354
30
0
40
1.5000000223517418
210
0
220
0
230
1
0
CIRCLE
5
257
100
AcDbEntity
8
0
100
AcDbCircle
10
180.00000268220901
20
70.000001043081284
30
0
40
1.5000000223517418
210
0
220
0
230
1
0
CIRCLE
5
258
100
AcDbEntity
8
0
100
AcDbCircle
10
187.00000278651714
20
67.0000009983778
30
0
40
1.5000000223517418
210
0
220
0
230
1
0
CIRCLE
5
259
100
AcDbEntity
8
0
100
AcDbCircle
10
232.75553408443997
20
69.592190546033933
30
0
40
1.4999999999999858
210
0
220
0
230
1
0
CIRCLE
5
260
100
AcDbEntity
8
0
100
AcDbCircle
10
226.50000337511301
20
65.000000968575478
30
0
40
1.5000000223517418
210
0
220
0
230
1
0
CIRCLE
5
261
100
AcDbEntity
8
0
100
AcDbCircle
10
260.00000387430191
20
68.000001013278961
30
0
40
1.5000000223517418
210
0
220
0
230
1
0
CIRCLE
5
262
100
AcDbEntity
8
0
100
AcDbCircle
10
253.00000376999378
20
61.000000908970833
30
0
40
1.5000000223517418
210
0
220
0
230
1
0
CIRCLE
5
263
100
AcDbEntity
8
0
100
AcDbCircle
10
173.06020695539536
20
28.281046706218092
30
0
40
1.4999999999999833
210
0
220
0
230
1
0
CIRCLE
5
264
100
AcDbEntity
8
0
100
AcDbCircle
10
162.00000241398811
20
22.000000327825546
30
0
40
1.5000000223517418
210
0
220
0
230
1
0
CIRCLE
5
265
100
AcDbEntity
8
0
100
AcDbCircle
10
172.00000256299973
20
18.000000268220901
30
0
40
1.5000000223517418
210
0
220
0
230
1
0
CIRCLE
5
266
100
AcDbEntity
8
0
100
AcDbCircle
10
199.00000296533108
20
32.000000476837158
30
0
40
1.5000000223517418
210
0
220
0
230
1
0
CIRCLE
5
267
100
AcDbEntity
8
0
100
AcDbCircle
10
191.50000285357237
20
25.50000037997961
30
0
40
1.5000000223517418
210
0
220
0
230
1
0
CIRCLE
5
268
100
AcDbEntity
8
0
100
AcDbCircle
10
255.0000037997961
20
30.000000447034836
30
0
40
1.5000000223517418
210
0
220
0
230
1
0
CIRCLE
5
269
100
AcDbEntity
8
0
100
AcDbCircle
10
262.00000390410423
20
25.00000037252903
30
0
40
1.5000000223517418
210
0
220
0
230
1
0
CIRCLE
5
270
100
AcDbEntity
8
0
100
AcDbCircle
10
260.33223446142119
20
57.2328127498238
30
0
40
1.4999999999999938
210
0
220
0
230
1
0
LWPOLYLINE
5
271
100
AcDbEntity
8
0
100
AcDbPolyline
90
4
70
1
43
0.0
10
10
20
160
10
150
20
160
10
150
20
220
10
10
20
220
0
ARC
5
272
100
AcDbEntity
8
0
100
AcDbCircle
10
180
20
105
30
0
40
14.422205502741628
210
0
220
-0
230
1
100
AcDbArc
50
51.443943105052455
51
255.42595454079157
0
LINE
5
273
100
AcDbEntity
8
0
100
AcDbLine
10
204.79180774804729
20
76.616169538629265
30
0
11
207.61893884172969
21
70.382568509488991
31
0
0
LINE
5
274
100
AcDbEntity
8
0
100
AcDbLine
10
207.61893884172969
20
70.382568509488991
30
0
11
208.38818348794223
21
70.578771748908693
31
0
0
ARC
5
275
100
AcDbEntity
8
0
100
AcDbCircle
10
217.1796265732969
20
41.217772191134912
30
0
40
29.550000000019871
210
0
220
0
230
1
100
AcDbArc
50
104.30875867261098
51
109.81305993436273
0
LINE
5
276
100
AcDbEntity
8
0
100
AcDbLine
10
207.61893884172969
20
70.382568509488991
30
0
11
207.90181367346031
21
69.273514701302076
31
0
0
LINE
5
277
100
AcDbEntity
8
0
100
AcDbLine
10
171.12350407279706
20
75.868771725574163
30
0
11
169.00000251829624
21
76.000001132488251
31
0
0
LINE
5
278
100
AcDbEntity
8
0
100
AcDbLine
10
169.00000251829624
20
76.000001132488251
30
0
11
156.91415717656579
21
73.287741860540322
31
0
0
ELLIPSE
5
279
100
AcDbEntity
8
0
100
AcDbEllipse
10
241.57787022283816
20
24.851242969204389
30
0
11
2.5832507114033065
21
-14.107958366824555
31
0.0
40
0.68060698719280344
41
0.11235774784070265
42
6.1678307007037896
0
ENDSEC
0
SECTION
2
OBJECTS
0
DICTIONARY
5
C
100
AcDbDictionary
3
ACAD_GROUP
350
D
3
ACAD_MLINESTYLE
350
17
0
DICTIONARY
5
D
100
AcDbDictionary
0
DICTIONARY
5
1A
330
C
100
AcDbDictionary
0
DICTIONARY
5
17
100
AcDbDictionary
0
ENDSEC
0
EOF
